<?xml version="1.0" standalone="no"?><!DOCTYPE svg PUBLIC "-//W3C//DTD SVG 1.1//EN" "http://www.w3.org/Graphics/SVG/1.1/DTD/svg11.dtd"><svg t="1663554091376" class="icon" viewBox="0 0 1024 1024" version="1.1" xmlns="http://www.w3.org/2000/svg" p-id="1754" xmlns:xlink="http://www.w3.org/1999/xlink" width="128" height="128"><path d="M647.629004 453.695083a11.539824 11.539824 0 0 1-11.561314 11.561313h-18.212804c5.408173 47.239907 42.764989 84.845387 89.881077 90.564645v-19.020192a11.539824 11.539824 0 0 1 11.561313-11.561313 11.539824 11.539824 0 0 1 11.561314 11.561313v19.206434c48.048319-4.910846 86.399789-42.951231 91.86936-90.813309h-20.263509a11.539824 11.539824 0 0 1-11.561313-11.561313 11.539824 11.539824 0 0 1 11.561313-11.561313h20.263509c-5.28333-48.048319-43.759643-86.274946-91.931782-91.185792v19.57994A11.539824 11.539824 0 0 1 719.234855 382.02681a11.539824 11.539824 0 0 1-11.561314-11.561314v-19.268855c-47.239907 5.780657-84.659145 43.572378-89.880053 90.937128h18.274202c6.401804-0.061398 11.561313 5.097088 11.561314 11.561314zM719.234855 395.950937c31.762401 0 57.496505 25.733081 57.496505 57.496506S750.997256 510.942925 719.234855 510.942925c-31.762401 0-57.496505-25.733081-57.496506-57.496506 0-31.762401 25.734104-57.495482 57.496506-57.495482zM232.909607 453.695083a11.539824 11.539824 0 0 1-11.561313 11.561313h-18.212804c5.408173 47.239907 42.764989 84.845387 89.880053 90.564645v-19.020192a11.539824 11.539824 0 0 1 11.561314-11.561313 11.539824 11.539824 0 0 1 11.561313 11.561313v19.206434c48.048319-4.910846 86.399789-42.951231 91.869361-90.813309h-20.263509a11.539824 11.539824 0 0 1-11.561314-11.561313 11.539824 11.539824 0 0 1 11.561314-11.561313h20.263509c-5.28333-47.985898-43.759643-86.213547-91.931782-91.123371v19.579941a11.539824 11.539824 0 0 1-11.561314 11.561314 11.539824 11.539824 0 0 1-11.561313-11.561314v-19.331277c-47.239907 5.780657-84.659145 43.572378-89.881077 90.937128h18.274202c6.342452-0.061398 11.56336 5.097088 11.56336 11.561314z m71.606875-57.744146c31.762401 0 57.496505 25.733081 57.496505 57.496506s-25.733081 57.434084-57.496505 57.434083-57.496505-25.733081-57.496506-57.496505c0-31.701003 25.733081-57.434084 57.496506-57.434084z" p-id="1755"></path><path d="M904.71422 220.167399h-785.367041c-23.37129 0-42.453904 18.896372-42.453905 42.391482v498.818793c0 23.37129 18.957771 42.453904 42.453905 42.453904h785.304619c23.37129 0 42.453904-18.957771 42.453904-42.453904V262.497483c0.062422-23.433712-19.020192-42.330084-42.391482-42.330084zM570.926064 453.571263c0-5.966898 4.848425-10.815323 10.815323-10.815324h13.364379c5.097088-60.479443 53.145407-108.901269 113.501031-114.49466v-12.307304c0-5.966898 4.848425-10.815323 10.815323-10.815323s10.815323 4.848425 10.815323 10.815323v12.18246c61.164035 4.786003 110.205984 53.580313 115.365494 114.619504h11.498892c5.966898 0 10.815323 4.848425 10.815323 10.815324s-4.848425 10.815323-10.815323 10.815323H845.602937c-5.28333 60.915371-54.263881 109.522416-115.303072 114.308419v12.555967c0 5.966898-4.848425 10.815323-10.815324 10.815323s-10.815323-4.848425-10.815323-10.815323v-12.679787c-60.169381-5.594415-108.2177-53.828976-113.438608-114.122177h-13.550621c-5.967922-0.062422-10.753925-4.910846-10.753925-10.877745z m-414.780794 0c0-5.966898 4.848425-10.815323 10.815323-10.815324h13.364379c5.097088-60.479443 53.145407-108.901269 113.50103-114.49466v-12.307304c0-5.966898 4.848425-10.815323 10.815323-10.815323s10.815323 4.848425 10.815323 10.815323v12.18246c61.164035 4.786003 110.205984 53.580313 115.365495 114.619504h11.498891c5.966898 0 10.815323 4.848425 10.815324 10.815324s-4.848425 10.815323-10.815324 10.815323h-11.498891c-5.28333 60.915371-54.263881 109.522416-115.303073 114.308419v12.555967c0 5.966898-4.848425 10.815323-10.815323 10.815323s-10.815323-4.848425-10.815323-10.815323v-12.679787c-60.169381-5.594415-108.2177-53.828976-113.438609-114.122177h-13.425777c-6.031367-0.062422-10.878768-4.910846-10.878768-10.877745zM334.414419 753.48389c-4.910846 4.910846-11.809977 7.769964-18.709107 7.769964-6.961552 0-13.799284-2.859118-18.709107-7.769964-4.910846-4.910846-7.769964-11.809977-7.769964-18.709107 0-6.89913 2.859118-13.799284 7.769964-18.709108s11.809977-7.769964 18.709107-7.769963c6.961552 0 13.799284 2.859118 18.709107 7.769963s7.769964 11.809977 7.769964 18.709108c0 6.89913-2.860141 13.860682-7.769964 18.709107z m392.341736 0c-4.910846 4.910846-11.809977 7.769964-18.709107 7.769964-6.961552 0-13.799284-2.859118-18.709107-7.769964-4.910846-4.910846-7.769964-11.809977-7.769964-18.709107 0-6.89913 2.859118-13.799284 7.769964-18.709108 4.910846-4.910846 11.809977-7.769964 18.709107-7.769963 6.961552 0 13.799284 2.859118 18.709107 7.769963 4.910846 4.910846 7.769964 11.809977 7.769964 18.709108 0 6.89913-2.860141 13.860682-7.769964 18.709107z m188.400905-84.659145H108.780519c-5.966898 0-10.815323-4.848425-10.815323-10.815323s4.848425-10.815323 10.815323-10.815324H915.15706c5.966898 0 10.815323 4.848425 10.815323 10.815324s-4.910846 10.815323-10.815323 10.815323z" p-id="1756"></path></svg>